<svg xmlns="http://www.w3.org/2000/svg" xmlns:xlink="http://www.w3.org/1999/xlink" width="100" height="100" viewBox="0 0 100 100"><rect width="100%" height="100%" fill="#FFFFFF"></rect><g transform="translate(50 50) scale(0.69 0.69) rotate(0) translate(-50 -50)" style="fill:#000000"><svg fill="#000000" xmlns="http://www.w3.org/2000/svg" data-name="Layer 1" viewBox="0 0 100 100" x="0px" y="0px"><title>Artboard 18</title><path d="M13.5,91.32H87.25a5,5,0,0,0,5-5V12.57a5,5,0,0,0-5-5H13.5a5,5,0,0,0-5,5V86.32A5,5,0,0,0,13.5,91.32ZM53,64.18H79.5a3,3,0,0,1,0,6H53a3,3,0,0,1,0-6ZM21.13,31.83a3,3,0,0,1,4.24-4.24L44.11,46.32a3,3,0,0,1,0,4.24L25.37,69.3a3,3,0,0,1-4.24-4.24L37.75,48.44Z"></path></svg></g></svg>